<?xml version="1.0" encoding="UTF-8" standalone="no"?>
<svg
   xmlns:dc="http://purl.org/dc/elements/1.1/"
   xmlns:cc="http://creativecommons.org/ns#"
   xmlns:rdf="http://www.w3.org/1999/02/22-rdf-syntax-ns#"
   xmlns:svg="http://www.w3.org/2000/svg"
   xmlns="http://www.w3.org/2000/svg"
   xmlns:sodipodi="http://sodipodi.sourceforge.net/DTD/sodipodi-0.dtd"
   xmlns:inkscape="http://www.inkscape.org/namespaces/inkscape"
   width="163.28571mm"
   height="163.28572mm"
   viewBox="0 0 163.28571 163.28572"
   version="1.1"
   id="svg8"
   inkscape:version="1.0.2 (e86c8708, 2021-01-15)"
   sodipodi:docname="intervals-logo.svg">
  <defs
     id="defs2">
    <defs
       id="SvgjsDefs4689" />
  </defs>
  <sodipodi:namedview
     id="base"
     pagecolor="#ffffff"
     bordercolor="#666666"
     borderopacity="1.0"
     inkscape:pageopacity="0.0"
     inkscape:pageshadow="2"
     inkscape:zoom="0.35"
     inkscape:cx="314.28571"
     inkscape:cy="440"
     inkscape:document-units="mm"
     inkscape:current-layer="layer1"
     inkscape:document-rotation="0"
     showgrid="false"
     inkscape:window-width="1252"
     inkscape:window-height="915"
     inkscape:window-x="0"
     inkscape:window-y="23"
     inkscape:window-maximized="0"
     fit-margin-top="0"
     fit-margin-left="0"
     fit-margin-right="0"
     fit-margin-bottom="0" />
  <metadata
     id="metadata5">
    <rdf:RDF>
      <cc:Work
         rdf:about="">
        <dc:format>image/svg+xml</dc:format>
        <dc:type
           rdf:resource="http://purl.org/dc/dcmitype/StillImage" />
        <dc:title></dc:title>
      </cc:Work>
    </rdf:RDF>
  </metadata>
  <g
     inkscape:label="Layer 1"
     inkscape:groupmode="layer"
     id="layer1"
     transform="translate(-22.678572,-31.75)">
    <g
       id="g2072">
      <circle
         style="fill:#dd0447;stroke-width:0.264583"
         id="rect844"
         r="81.64"
         cx="104.32"
         cy="113.3" />
      <g
         id="SvgjsG4690"
         featureKey="v37d4h-0"
         transform="matrix(1.504571,0,0,1.504571,29.141305,37.164828)"
         fill="#ffffff">
        <path
           d="M 98.569,57.02 77.278,54.093 69.022,17.449 69.01,17.389 C 68.621,15.678 67.296,14.25 65.473,13.817 62.921,13.212 60.361,14.79 59.756,17.342 L 48.048,66.696 37.007,32.288 36.992,32.24 c -0.437,-1.327 -1.514,-2.415 -2.965,-2.803 -2.286,-0.612 -4.636,0.746 -5.247,3.032 L 22.842,54.662 1.464,57.02 c -0.633,0.07 -1.156,0.57 -1.229,1.229 -0.084,0.763 0.466,1.449 1.229,1.534 l 24.618,2.715 c 1.702,0.189 3.342,-0.871 3.825,-2.573 l 0.123,-0.434 3.177,-11.179 11.488,35.134 c 0.433,1.292 1.5,2.371 2.918,2.735 2.224,0.571 4.491,-0.769 5.062,-2.993 l 0.007,-0.026 11.338,-44.156 4.502,20.453 0.132,0.603 c 0.465,2.084 2.459,3.497 4.611,3.201 l 25.302,-3.479 c 0.604,-0.083 1.104,-0.558 1.191,-1.191 0.108,-0.765 -0.426,-1.468 -1.189,-1.573 z"
           id="path847" />
      </g>
    </g>
  </g>
</svg>
